<?xml version="1.0" encoding="UTF-8"?>
<svg id="Layer_1" data-name="Layer 1" xmlns="http://www.w3.org/2000/svg" version="1.1" viewBox="0 0 1024 1024">
  <defs>
    <style>
      .cls-1 {
        fill: #bec744;
      }

      .cls-1, .cls-2, .cls-3, .cls-4, .cls-5, .cls-6, .cls-7, .cls-8, .cls-9, .cls-10, .cls-11, .cls-12, .cls-13, .cls-14, .cls-15, .cls-16, .cls-17, .cls-18, .cls-19, .cls-20, .cls-21, .cls-22, .cls-23, .cls-24, .cls-25, .cls-26, .cls-27, .cls-28, .cls-29, .cls-30, .cls-31, .cls-32, .cls-33, .cls-34, .cls-35, .cls-36, .cls-37, .cls-38, .cls-39, .cls-40, .cls-41, .cls-42, .cls-43, .cls-44, .cls-45, .cls-46, .cls-47, .cls-48, .cls-49, .cls-50, .cls-51, .cls-52, .cls-53, .cls-54, .cls-55, .cls-56, .cls-57, .cls-58, .cls-59, .cls-60, .cls-61 {
        fill-rule: evenodd;
        stroke-width: 0px;
      }

      .cls-1, .cls-2, .cls-3, .cls-4, .cls-5, .cls-6, .cls-7, .cls-8, .cls-9, .cls-10, .cls-11, .cls-12, .cls-13, .cls-14, .cls-16, .cls-17, .cls-18, .cls-19, .cls-20, .cls-21, .cls-23, .cls-24, .cls-25, .cls-26, .cls-27, .cls-28, .cls-29, .cls-30, .cls-31, .cls-32, .cls-33, .cls-34, .cls-35, .cls-36, .cls-37, .cls-38, .cls-39, .cls-40, .cls-41, .cls-42, .cls-43, .cls-44, .cls-45, .cls-46, .cls-47, .cls-48, .cls-49, .cls-50, .cls-51, .cls-52, .cls-53, .cls-54, .cls-55, .cls-56, .cls-57, .cls-58, .cls-59, .cls-60, .cls-61 {
        isolation: isolate;
      }

      .cls-1, .cls-4, .cls-12, .cls-17, .cls-20, .cls-21, .cls-23, .cls-26, .cls-28, .cls-29, .cls-30, .cls-33, .cls-34, .cls-36, .cls-41, .cls-45, .cls-49, .cls-55, .cls-57, .cls-58, .cls-60, .cls-61 {
        opacity: .2;
      }

      .cls-2 {
        fill: #c2c652;
      }

      .cls-2, .cls-19, .cls-31, .cls-32, .cls-38, .cls-43, .cls-44, .cls-47, .cls-52, .cls-59 {
        opacity: 0;
      }

      .cls-3, .cls-6, .cls-7, .cls-11, .cls-25, .cls-40, .cls-53 {
        opacity: .1;
      }

      .cls-3, .cls-57 {
        fill: #bfc749;
      }

      .cls-4 {
        fill: #bac838;
      }

      .cls-5, .cls-8, .cls-50 {
        opacity: .4;
      }

      .cls-5, .cls-21, .cls-42, .cls-51 {
        fill: #7cbcc6;
      }

      .cls-6, .cls-9, .cls-35, .cls-39 {
        fill: #b5ca2b;
      }

      .cls-7 {
        fill: #bfc74a;
      }

      .cls-8 {
        fill: #82bcc2;
      }

      .cls-9, .cls-13, .cls-42 {
        opacity: .3;
      }

      .cls-10 {
        fill: #9dc372;
      }

      .cls-10, .cls-46, .cls-54 {
        opacity: .8;
      }

      .cls-11 {
        fill: #c0c74b;
      }

      .cls-12 {
        fill: #bac839;
      }

      .cls-13 {
        fill: #b6c92e;
      }

      .cls-14 {
        fill: #a2c4a7;
      }

      .cls-14, .cls-51 {
        opacity: .6;
      }

      .cls-15 {
        fill: #99a18b;
      }

      .cls-16, .cls-24 {
        fill: #ca772d;
      }

      .cls-16, .cls-39, .cls-48 {
        opacity: .4;
      }

      .cls-17 {
        fill: #bcc841;
      }

      .cls-18 {
        fill: #ca772e;
      }

      .cls-18, .cls-56 {
        opacity: .9;
      }

      .cls-19 {
        fill: #c1c64f;
      }

      .cls-20 {
        fill: #bbc83e;
      }

      .cls-22, .cls-56, .cls-61 {
        fill: #ca762c;
      }

      .cls-23 {
        fill: #bbc83c;
      }

      .cls-25 {
        fill: #c1c74d;
      }

      .cls-26 {
        fill: #bfc748;
      }

      .cls-27, .cls-54 {
        fill: #c9762b;
      }

      .cls-28 {
        fill: #bcc83e;
      }

      .cls-29 {
        fill: #bdc842;
      }

      .cls-30 {
        fill: #bcc83f;
      }

      .cls-31 {
        fill: #c3c653;
      }

      .cls-32 {
        fill: #b2c797;
      }

      .cls-33 {
        fill: #bec747;
      }

      .cls-34 {
        fill: #bbc83b;
      }

      .cls-35, .cls-37 {
        opacity: .3;
      }

      .cls-36 {
        fill: #bac83a;
      }

      .cls-37 {
        fill: #606060;
      }

      .cls-38, .cls-48 {
        fill: #b6c92c;
      }

      .cls-40 {
        fill: #c0c74a;
      }

      .cls-41 {
        fill: #bfc747;
      }

      .cls-43 {
        fill: #c3c654;
      }

      .cls-44 {
        fill: #c2c651;
      }

      .cls-45 {
        fill: #bdc742;
      }

      .cls-46 {
        fill: #9cc46e;
      }

      .cls-47 {
        fill: #c1c74f;
      }

      .cls-49 {
        fill: #bec745;
      }

      .cls-50 {
        fill: #7fbcc4;
      }

      .cls-52 {
        fill: #c1c74e;
      }

      .cls-53 {
        fill: #c0c74c;
      }

      .cls-55 {
        fill: #bec746;
      }

      .cls-58 {
        fill: #bdc743;
      }

      .cls-59 {
        fill: #c2c650;
      }

      .cls-60 {
        fill: #bcc840;
      }
    </style>
  </defs>
  <path class="cls-18" d="M870.6,511.8c9.3-4.8,18-10.8,25.9-17.7,28.1-29.6,44.7-64.8,49.8-105.7,13-68.2-1.5-129.6-43.7-184.2-47.1-55-106.5-88.2-178.1-99.6h.2s-338.4,0-338.4,0v27.3h-54.6v19.1h54.6v87.3h50.5v30h-50.5v207.4h80.5v19.1h-80.5v81.9h-54.6c-1,16.6-3.7,33.1-8.2,49.1h53.2c-2.8,10.4-7.4,20.4-13.6,29.3-9.1.7-18.2.9-27.3.7h-21.8v-30h-31.4v30h-15v32.7h15c-.2,1.9,0,3.8.7,5.5,5.1-4.9,11.2-6.8,18.4-5.5,10.9-.2,21.8,0,32.7.7-76.8,79.5-154.6,158.2-233.3,236,75.5.7,151,.9,226.5.7h34.1c64.6-65.3,129.4-130.3,194.4-195.1.7-14.1.9-28.2.7-42.3h-125.5v-32.7h125.5v-72.3h21.8c42.3-.2,84.6,0,126.9.7,64.2,28.8,80.8,75,49.8,138.5-18.1,28.3-43.8,41.5-77.1,39.6-32.7-.7-65.5,0-98.2,2-53.9,52.2-107.1,105.2-159.6,158.9h294.7c21.6-4.2,43-9.9,64.1-17.1,126.9-47.4,182.2-138.6,165.8-273.6-8.8-50.4-33.5-90.7-74.4-120.7ZM474.9,625.8h-54.6v-49.1h54.6v49.1ZM548.5,151h-54.6v-19.1h54.6v19.1ZM579.9,261.5c42.3.3,84.6,1.4,126.9,3.4,21.3,3.3,38.1,13.6,50.5,30.7h69.6v30h-57.4c4.8,69.8-27.9,105.2-98.1,106.4,0,0,0,0,0,0h-86.9c0,.1-27.3.1-27.3.1v-170.6h0"/>
  <path class="cls-56" d="M312.9,103.2v28.7h-31.4c.8-9.5,1.3-19.1,1.4-28.7h30Z"/>
  <path class="cls-5" d="M312.9,103.2h21.8v28.7h-21.8v-28.7Z"/>
  <path class="cls-8" d="M723.6,104.6c50.6,1.5,97,16.3,139.2,44.3,13.1,8.1,25,18,35.5,29.3,4.1,5,8.6,9.6,13.6,13.6,30.5,30.6,49.2,67.4,55.9,110.5.2,8.5,1.1,16.6,2.7,24.6,2.4,40.5-3.7,79.6-18.4,117.3-12.1,29.3-31.8,51.8-59.4,67.5,45.6,34.6,70.9,80.7,75.7,138.5,9.1,111.3-35.7,192-134.4,242.2-38,18.4-78,28.6-120.1,30.7,21.6-4.2,43-9.8,64.1-17.1,126.9-47.4,182.2-138.6,165.8-273.6-8.7-50.5-33.5-90.7-74.4-120.7,9.3-4.9,18-10.8,25.9-17.7,28.1-29.6,44.7-64.9,49.8-105.7,13.1-68.2-1.5-129.6-43.7-184.2-47.1-55-106.4-88.2-178.1-99.6h.3Z"/>
  <path class="cls-35" d="M276.1,131.9h-31.4c1-8.1,1.5-16.4,1.4-24.6h30v24.6Z"/>
  <path class="cls-35" d="M385.3,108.7v23.2h-36.8v-23.2h36.8Z"/>
  <path class="cls-13" d="M190.2,131.9h31.4v19.1h-31.4v-19.1Z"/>
  <path class="cls-18" d="M244.7,131.9h13.6v19.1h-31.4v-19.1h17.8Z"/>
  <path class="cls-51" d="M258.4,131.9h21.8v19.1h-21.8v-19.1Z"/>
  <path class="cls-39" d="M293.8,131.9h36.8v19.1h-36.8v-19.1Z"/>
  <path class="cls-35" d="M244.7,151h31.4v87.3h-17.7v30h17.7c.5,69.1,0,138.3-1.4,207.4h-30V151h0Z"/>
  <path class="cls-24" d="M293.8,151h19.1v87.3h-31.4v-87.3h12.3Z"/>
  <path class="cls-5" d="M312.9,151h21.8v87.3h-21.8v-87.3Z"/>
  <path class="cls-35" d="M348.4,151h36.8v87.3h-36.8v-87.3Z"/>
  <path class="cls-32" d="M898.3,178.3c5.9,3.2,10.5,7.7,13.6,13.6-5-4.1-9.6-8.6-13.6-13.6Z"/>
  <path class="cls-6" d="M100.7,238.3h17.7v30h-17.7v-30h0Z"/>
  <path class="cls-16" d="M155.3,238.3v30h-31.4v-30h31.4Z"/>
  <path class="cls-42" d="M155.3,238.3h21.8v30h-21.8v-30h0Z"/>
  <path class="cls-9" d="M227.6,238.3v30h-36.8v-30h36.8Z"/>
  <path class="cls-54" d="M227.6,238.3h50.5v30h-50.5v-30h0Z"/>
  <path class="cls-24" d="M312.9,268.3v207.4h-31.4v-207.4h31.4Z"/>
  <path class="cls-5" d="M312.9,268.3h21.8v207.4h-21.8v-207.4Z"/>
  <path class="cls-35" d="M385.3,268.3v207.4h-36.8v-207.4h36.8Z"/>
  <path class="cls-14" d="M967.8,302.4c2.1,7.9,3,16,2.7,24.6-1.6-7.9-2.5-16.1-2.7-24.6Z"/>
  <path class="cls-38" d="M53.7,475.7h31.4v19.1h-31.4s0-19.1,0-19.1Z"/>
  <path class="cls-61" d="M121.9,475.7v19.1h-31.4v-19.1h31.4Z"/>
  <path class="cls-21" d="M121.9,475.7h21.8v19.1h-21.8s0-19.1,0-19.1Z"/>
  <path class="cls-9" d="M194.2,475.7v19.1h-36.8v-19.1h36.8Z"/>
  <path class="cls-27" d="M194.2,475.7h80.5v19.1h-80.5v-19.1h0Z"/>
  <path class="cls-35" d="M244.7,494.8h30c1.4,27.3,1.8,54.6,1.4,81.9h-31.4v-81.9h0Z"/>
  <path class="cls-22" d="M312.9,494.8v81.9h-31.4v-81.9h31.4Z"/>
  <path class="cls-51" d="M312.9,494.8h21.8v81.9h-21.8v-81.9h0Z"/>
  <path class="cls-35" d="M385.3,494.8v81.9h-36.8v-81.9h36.8Z"/>
  <path class="cls-35" d="M190.2,576.7h31.4v49.1h-31.4v-49.1Z"/>
  <path class="cls-22" d="M244.7,576.7h13.6v49.1h-31.4v-49.1h17.8Z"/>
  <path class="cls-5" d="M258.4,576.7h21.8v49.1h-21.8v-49.1Z"/>
  <path class="cls-37" d="M293.8,576.7h36.8c-1,16.6-3.7,33.1-8.2,49.1h-36.8c5.1-15.9,7.8-32.3,8.2-49.1Z"/>
  <path class="cls-46" d="M577.6,583.5v4.1h-21.8v-4.1h21.8Z"/>
  <path class="cls-35" d="M577.6,583.5c42.3-.2,84.6,0,126.9.7,64.2,28.8,80.8,75,49.8,138.5-18.1,28.3-43.8,41.4-77.1,39.6,43.5-24.8,61.1-62.1,52.5-111.9-7.8-22.8-22.1-40.3-43-52.5l-19.1-9.6c-30-.7-60-.9-90-.7v-4.1h0Z"/>
  <path class="cls-5" d="M557.8,261.2h23.2v170.8h-23.2v-170.8Z"/>
  <path class="cls-35" d="M244.7,625.8h31.4v30h-9.6v23.2c-6.8,6.6-13.9,13-21.1,19.1-.7-24.1-.9-48.2-.7-72.3Z"/>
  <path class="cls-5" d="M312.9,625.8h21.8v17.7c-2.6,3.9-4.9,8-6.8,12.3h-15v-30Z"/>
  <path class="cls-35" d="M340.2,625.8h35.5c-2.9,10.5-7.5,20.4-13.6,29.3-9.1.7-18.2.9-27.3.7v-16.4c2.6-4.1,4.4-8.7,5.5-13.6h-.1Z"/>
  <path class="cls-10" d="M334.8,643.5v12.3h-6.8c1.9-4.3,4.2-8.4,6.8-12.3Z"/>
  <path class="cls-15" d="M392.1,655.8h21.8v32.7h-21.8v-32.7Z"/>
  <path class="cls-35" d="M300.7,688.5c10.9-.2,21.8,0,32.7.7-76.9,79.6-154.6,158.3-233.3,236,75.5.7,151,.9,226.5.7-.6,1.3-1.5,2.4-2.7,3.4-86.9.9-173.7.9-260.6,0,80.3-79.1,159.4-159.4,237.4-240.8h0Z"/>
  <path class="cls-50" d="M555.8,688.5h21.8c.2,14.1,0,28.2-.7,42.3-13.6,13.4-27.1,27.1-40.2,40.9-.9,0-1.4.5-1.4,1.4-.9,0-1.4.5-1.4,1.4-.9,0-1.4.5-1.4,1.4-.9,0-1.4.5-1.4,1.4-.9,0-1.4.5-1.4,1.4-.9,0-1.4.5-1.4,1.4-.9,0-1.4.5-1.4,1.4-.9,0-1.4.5-1.4,1.4-.9,0-1.4.5-1.4,1.4-.9,0-1.4.5-1.4,1.4-.9,0-1.4.5-1.4,1.4-.9,0-1.4.5-1.4,1.4-.9,0-1.4.5-1.4,1.4-.9,0-1.4.5-1.4,1.4-.9,0-1.4.5-1.4,1.4-.9,0-1.4.5-1.4,1.4-.9,0-1.4.5-1.4,1.4-.9,0-1.4.5-1.4,1.4-.9,0-1.4.5-1.4,1.4-.9,0-1.4.5-1.4,1.4-.9,0-1.4.5-1.4,1.4-.9,0-1.4.5-1.4,1.4-.9,0-1.4.5-1.4,1.4-.9,0-1.4.5-1.4,1.4-.9,0-1.4.5-1.4,1.4-.9,0-1.4.5-1.4,1.4-.9,0-1.4.5-1.4,1.4-.9,0-1.4.5-1.4,1.4-.9,0-1.4.5-1.4,1.4-.9,0-1.4.5-1.4,1.4-.9,0-1.4.5-1.4,1.4-.9,0-1.4.5-1.4,1.4-.9,0-1.4.5-1.4,1.4-.9,0-1.4.5-1.4,1.4-.9,0-1.4.5-1.4,1.4-.9,0-1.4.5-1.4,1.4-.9,0-1.4.5-1.4,1.4-.9,0-1.4.5-1.4,1.4-.9,0-1.4.5-1.4,1.4-.9,0-1.4.5-1.4,1.4-.9,0-1.4.5-1.4,1.4-.9,0-1.4.5-1.4,1.4-.9,0-1.4.5-1.4,1.4-.9,0-1.4.5-1.4,1.4-.9,0-1.4.5-1.4,1.4-.9,0-1.4.5-1.4,1.4-.9,0-1.4.5-1.4,1.4-.9,0-1.4.5-1.4,1.4-.9,0-1.4.5-1.4,1.4-.9,0-1.4.5-1.4,1.4-.9,0-1.4.5-1.4,1.4-.9,0-1.4.5-1.4,1.4-.9,0-1.4.5-1.4,1.4-.9,0-1.4.5-1.4,1.4-.9,0-1.4.5-1.4,1.4-.9,0-1.4.5-1.4,1.4-.9,0-1.4.5-1.4,1.4-.9,0-1.4.5-1.4,1.4-.9,0-1.4.5-1.4,1.4l-75,73.7h-20.5c64.6-65.3,129.4-130.3,194.4-195.1.7-14.1.9-28.2.7-42.3l2.1-2.1Z"/>
  <path class="cls-43" d="M536.7,771.8q1.2.6,0,0ZM535.3,773.1h1.4c-.3.9-.7.9-1.4,0ZM534,774.5h1.4c-.3.9-.7.9-1.4,0ZM532.6,775.9h1.4c-.3.9-.7.9-1.4,0Z"/>
  <path class="cls-43" d="M531.2,777.2h1.4c-.3.9-.7.9-1.4,0ZM529.9,778.6h1.4c-.3.9-.7.9-1.4,0ZM528.5,779.9h1.4c-.3.9-.7.9-1.4,0Z"/>
  <path class="cls-43" d="M527.2,781.3h1.4c-.3.9-.7.9-1.4,0Z"/>
  <path class="cls-2" d="M525.8,782.7h1.4c-.3.9-.7.9-1.4,0ZM524.4,784h1.4c-.3.9-.7.9-1.4,0ZM523.1,785.4h1.4c-.3.9-.7.9-1.4,0Z"/>
  <path class="cls-31" d="M521.7,786.8h1.4c-.3.9-.7.9-1.4,0Z"/>
  <path class="cls-2" d="M520.3,788.1h1.4c-.3.9-.7.9-1.4,0ZM519,789.5h1.4c-.3.9-.7.9-1.4,0Z"/>
  <path class="cls-2" d="M517.6,790.9h1.4c-.3.9-.7.9-1.4,0Z"/>
  <path class="cls-2" d="M516.2,792.2h1.4c-.3.9-.7.9-1.4,0Z"/>
  <path class="cls-2" d="M514.9,793.6h1.4c-.3.9-.7.9-1.4,0ZM513.5,795h1.4c-.3.9-.7.9-1.4,0Z"/>
  <path class="cls-44" d="M512.1,796.3h1.4c-.3.9-.7.9-1.4,0Z"/>
  <path class="cls-44" d="M510.8,797.7h1.4c-.3.9-.7.9-1.4,0h0Z"/>
  <path class="cls-44" d="M509.4,799h1.4c-.3.9-.7.9-1.4,0Z"/>
  <path class="cls-59" d="M508.1,800.4h1.4c-.3.9-.7.9-1.4,0Z"/>
  <path class="cls-59" d="M506.7,801.8h1.4c-.3.9-.7.9-1.4,0Z"/>
  <path class="cls-59" d="M505.3,803.1h1.4c-.3.9-.7.9-1.4,0Z"/>
  <path class="cls-19" d="M504,804.5h1.4c-.3.9-.7.9-1.4,0Z"/>
  <path class="cls-19" d="M502.6,805.9h1.4c-.3.9-.7.9-1.4,0Z"/>
  <path class="cls-47" d="M501.2,807.2h1.4c-.3.9-.7.9-1.4,0Z"/>
  <path class="cls-52" d="M499.9,808.6h1.4c-.3.9-.7.9-1.4,0Z"/>
  <path class="cls-25" d="M498.5,810h1.4c-.3.9-.7.9-1.4,0ZM497.1,811.3h1.4c-.3.9-.7.9-1.4,0Z"/>
  <path class="cls-25" d="M495.8,812.7h1.4c-.3.9-.7.9-1.4,0Z"/>
  <path class="cls-53" d="M494.4,814.1h1.4c-.3.9-.7.9-1.4,0Z"/>
  <path class="cls-11" d="M493,815.4h1.4c-.3.9-.7.9-1.4,0Z"/>
  <path class="cls-11" d="M491.7,816.8h1.4c-.3.9-.7.9-1.4,0ZM490.3,818.1h1.4c-.3.9-.7.9-1.4,0Z"/>
  <path class="cls-40" d="M489,819.5h1.4c-.3.9-.7.9-1.4,0Z"/>
  <path class="cls-7" d="M487.6,820.9h1.4c-.3.9-.7.9-1.4,0Z"/>
  <path class="cls-3" d="M486.2,822.2h1.4c-.3.9-.7.9-1.4,0Z"/>
  <path class="cls-57" d="M484.9,823.6h1.4c-.3.9-.7.9-1.4,0Z"/>
  <path class="cls-26" d="M483.5,825h1.4c-.3.9-.7.9-1.4,0Z"/>
  <path class="cls-41" d="M482.1,826.3h1.4c-.3.9-.7.9-1.4,0Z"/>
  <path class="cls-33" d="M480.8,827.7h1.4c-.3.9-.7.9-1.4,0Z"/>
  <path class="cls-55" d="M479.4,829.1h1.4c-.3.9-.7.9-1.4,0Z"/>
  <path class="cls-49" d="M478,830.4h1.4c-.3.9-.7.9-1.4,0Z"/>
  <path class="cls-1" d="M476.7,831.8h1.4c-.3.9-.7.9-1.4,0Z"/>
  <path class="cls-1" d="M475.3,833.2h1.4c-.3.9-.7.9-1.4,0Z"/>
  <path class="cls-58" d="M473.9,834.5h1.4c-.3.9-.7.9-1.4,0Z"/>
  <path class="cls-45" d="M472.6,835.9h1.4c-.3.9-.7.9-1.4,0Z"/>
  <path class="cls-29" d="M471.2,837.3h1.4c-.3.9-.7.9-1.4,0Z"/>
  <path class="cls-17" d="M469.9,838.6h1.4c-.3.9-.7.9-1.4,0Z"/>
  <path class="cls-60" d="M468.5,840h1.4c-.3.9-.7.9-1.4,0Z"/>
  <path class="cls-30" d="M467.1,841.3h1.4c-.3.9-.7.9-1.4,0Z"/>
  <path class="cls-28" d="M465.8,842.7h1.4c-.3.9-.7.9-1.4,0Z"/>
  <path class="cls-20" d="M464.4,844.1h1.4c-.3.9-.7.9-1.4,0Z"/>
  <path class="cls-23" d="M463,845.4h1.4c-.3.9-.7.9-1.4,0Z"/>
  <path class="cls-34" d="M461.7,846.8h1.4c-.3.9-.7.9-1.4,0Z"/>
  <path class="cls-36" d="M460.3,848.2h1.4c-.3.9-.7.9-1.4,0ZM458.9,849.5h1.4c-.3.9-.7.9-1.4,0Z"/>
  <path class="cls-12" d="M457.6,850.9h1.4c-.3.9-.7.9-1.4,0Z"/>
  <path class="cls-4" d="M456.2,852.3h1.4c-24.3,25-48.9,49.8-73.7,74.4-1.3.9-2.2.7-2.7-.7l75-73.7Z"/>
  <path class="cls-48" d="M419.4,923.2h274.2c-4.7,1.7-9.7,2.8-15,3.4-87.8.9-175.5.9-263.3,0,1.1-1.4,2.5-2.5,4.1-3.4Z"/>
  <path class="cls-35" d="M770,325.6c4.8,69.8-27.9,105.2-98.2,106.4,49.6-18.2,69.6-53.7,60-106.4h38.2Z"/>
  <path class="cls-35" d="M580,261.1c42.3.3,84.6,1.4,126.9,3.4,21.3,3.3,38.1,13.6,50.5,30.7-13.7.2-27.3,0-40.9-.7-12.5-14.7-28.4-23.3-47.8-25.9-29.5-1.5-59.1-2.7-88.7-3.4v-4.1Z"/>
  <path class="cls-24" d="M335.7,625.8v13.6c2.6-4.1,4.5-8.6,5.5-13.6h-5.5Z"/>
  <path class="cls-5" d="M555.1,586.7h23.2v69.1h-23.2v-69.1Z"/>
</svg>