<svg xmlns="http://www.w3.org/2000/svg" style="shape-rendering:geometricPrecision;text-rendering:geometricPrecision;image-rendering:optimizeQuality;fill-rule:evenodd;clip-rule:evenodd" width="40px" height="40px" viewBox="0 0 1024 1024"><path fill="#ca762c" d="M333.5 170.5v21h-23c.589-6.985.922-13.985 1-21h22Z" style="opacity:.934"/><path fill="#7cbcc6" d="M333.5 170.5h16v21h-16v-21Z" style="opacity:.62"/><path fill="#ca762c" d="M634.5 171.5c52.51 8.369 96.01 32.702 130.5 73 30.913 39.995 41.58 84.995 32 135-3.733 29.96-15.9 55.793-36.5 77.5a97.85 97.85 0 0 1-19 13c29.945 22.021 48.111 51.521 54.5 88.5 12.016 98.925-28.484 165.759-121.5 200.5-15.499 5.29-31.166 9.456-47 12.5h-216a6426.01 6426.01 0 0 1 117-116.5 899.93 899.93 0 0 1 72-1.5c24.415 1.375 43.248-8.291 56.5-29 22.711-46.541 10.544-80.375-36.5-101.5-30.998-.5-61.998-.667-93-.5h-16v53h-92v24h92c.166 10.339 0 20.672-.5 31a28836.825 28836.825 0 0 0-142.5 143h-25c-55.334.167-110.668 0-166-.5a10450.077 10450.077 0 0 0 171-173c-7.993-.5-15.993-.666-24-.5-5.265-.929-9.765.404-13.5 4a8.43 8.43 0 0 1-.5-4h-11v-24h11v-22h23v22h16c6.675.166 13.342 0 20-.5a70.278 70.278 0 0 0 10-21.5h-39a169.353 169.353 0 0 0 6-36h40v-60h59v-14h-59v-152h37v-22h-37v-64h-40v-14h40v-20h248Zm-169 20h40v14h-40v-14Zm63 98c21.675.555 43.341 1.388 65 2.5 14.198 1.928 25.865 8.261 35 19 9.994.5 19.994.666 30 .5h51v22h-70c7.018 38.662-7.648 64.662-44 78h-67v-122Zm-117 228h40v36h-40v-36Zm-62 36h4c-.767 3.649-2.1 6.982-4 10v-10Z" style="opacity:1"/><path fill="#82bcc2" d="M634.5 171.5c37.109 1.092 71.109 11.925 102 32.5a123.955 123.955 0 0 1 26 21.5c3 3.667 6.333 7 10 10 22.373 22.411 36.04 49.411 41 81 .152 6.199.818 12.199 2 18 1.785 29.676-2.715 58.342-13.5 86-8.833 21.499-23.333 37.999-43.5 49.5 33.435 25.35 51.935 59.183 55.5 101.5 6.66 81.545-26.173 140.712-98.5 177.5-27.843 13.461-57.176 20.961-88 22.5 15.834-3.044 31.501-7.21 47-12.5 93.016-34.741 133.516-101.575 121.5-200.5-6.389-36.979-24.555-66.479-54.5-88.5a97.85 97.85 0 0 0 19-13c20.6-21.707 32.767-47.54 36.5-77.5 9.58-50.005-1.087-95.005-32-135-34.49-40.298-77.99-64.631-130.5-73Z" style="opacity:.62"/><path fill="#b6c92c" d="M306.5 191.5h-23a132.596 132.596 0 0 0 1-18h22v18Z" style="opacity:.404"/><path fill="#b5ca2b" d="M386.5 174.5v17h-27v-17h27Z" style="opacity:.451"/><path fill="#b6c92e" d="M243.5 191.5h23v14h-23v-14Z" style="opacity:.284"/><path fill="#ca772e" d="M283.5 191.5h10v14h-23v-14h13Z" style="opacity:.898"/><path fill="#7cbcc6" d="M293.5 191.5h16v14h-16v-14Z" style="opacity:.557"/><path fill="#b5ca2b" d="M319.5 191.5h27v14h-27v-14Z" style="opacity:.443"/><path fill="#b6c92d" d="M283.5 205.5h23v64h-13v22h13a5777.056 5777.056 0 0 1-1 152h-22v-238Z" style="opacity:.444"/><path fill="#ca772d" d="M319.5 205.5h14v64h-23v-64h9Z" style="opacity:.991"/><path fill="#7cbcc6" d="M333.5 205.5h16v64h-16v-64Z" style="opacity:.62"/><path fill="#b5ca2b" d="M359.5 205.5h27v64h-27v-64Z" style="opacity:.451"/><path fill="#b2c797" d="M762.5 225.5c4.333 2.333 7.667 5.667 10 10-3.667-3-7-6.333-10-10Z" style="opacity:.008"/><path fill="#b5ca2b" d="M73.5 269.5h13v22h-13v-22Z" style="opacity:.129"/><path fill="#ca772d" d="M113.5 269.5v22h-23v-22h23Z" style="opacity:.39"/><path fill="#7cbcc6" d="M113.5 269.5h16v22h-16v-22Z" style="opacity:.302"/><path fill="#b5ca2b" d="M166.5 269.5v22h-27v-22h27Z" style="opacity:.335"/><path fill="#c9762b" d="M166.5 269.5h37v22h-37v-22Z" style="opacity:.842"/><path fill="#9ec36f" d="M528.5 286.5v3h-16v-4a118.435 118.435 0 0 0 16 1Z" style="opacity:.792"/><path fill="#b6c92e" d="M528.5 286.5c31.024.194 62.024 1.027 93 2.5 15.583 2.445 27.916 9.945 37 22.5-10.006.166-20.006 0-30-.5-9.135-10.739-20.802-17.072-35-19a2531.346 2531.346 0 0 0-65-2.5v-3Z" style="opacity:.451"/><path fill="#7cbcc6" d="M512.5 289.5h16v122h-16v-122Z" style="opacity:.62"/><path fill="#ca762c" d="M333.5 291.5v152h-23v-152h23Z" style="opacity:1"/><path fill="#7cbcc6" d="M333.5 291.5h16v152h-16v-152Z" style="opacity:.62"/><path fill="#b5ca2b" d="M386.5 291.5v152h-27v-152h27Z" style="opacity:.451"/><path fill="#a2c4a7" d="M813.5 316.5c1.557 5.761 2.224 11.761 2 18-1.182-5.801-1.848-11.801-2-18Z" style="opacity:.62"/><path fill="#b6c92d" d="M667.5 333.5c3.543 51.132-20.457 77.132-72 78 36.352-13.338 51.018-39.338 44-78h28Z" style="opacity:.451"/><path fill="#b6c92c" d="M143.5 443.5h23v14h-23v-14Z" style="opacity:.068"/><path fill="#ca762c" d="M193.5 443.5v14h-23v-14h23Z" style="opacity:.242"/><path fill="#7cbcc6" d="M193.5 443.5h16v14h-16v-14Z" style="opacity:.2"/><path fill="#b5ca2b" d="M246.5 443.5v14h-27v-14h27Z" style="opacity:.299"/><path fill="#c9762b" d="M246.5 443.5h59v14h-59v-14Z" style="opacity:.99"/><path fill="#b6c92c" d="M283.5 457.5h22a900.97 900.97 0 0 1 1 60h-23v-60Z" style="opacity:.451"/><path fill="#ca762c" d="M333.5 457.5v60h-23v-60h23Z" style="opacity:1"/><path fill="#7cbcc6" d="M333.5 457.5h16v60h-16v-60Z" style="opacity:.62"/><path fill="#b5ca2b" d="M386.5 457.5v60h-27v-60h27Z" style="opacity:.451"/><path fill="#b6ca2c" d="M243.5 517.5h23v36h-23v-36Z" style="opacity:.451"/><path fill="#ca762c" d="M283.5 517.5h10v36h-23v-36h13Z" style="opacity:1"/><path fill="#7cbcc6" d="M293.5 517.5h16v36h-16v-36Z" style="opacity:.62"/><path fill="#b6c92c" d="M319.5 517.5h27a169.353 169.353 0 0 1-6 36h-27c3.723-11.671 5.723-23.671 6-36Z" style="opacity:.451"/><path fill="#9cc46e" d="M527.5 522.5v3h-16v-3h16Z" style="opacity:.792"/><path fill="#b6c92d" d="M527.5 522.5c31.002-.167 62.002 0 93 .5 47.044 21.125 59.211 54.959 36.5 101.5-13.252 20.709-32.085 30.375-56.5 29 31.915-18.199 44.749-45.532 38.5-82-5.708-16.713-16.208-29.546-31.5-38.5l-14-7c-21.997-.5-43.997-.667-66-.5v-3Z" style="opacity:.451"/><path fill="#7cbcc6" d="M511.5 525.5h16v50h-16v-50Z" style="opacity:.62"/><path fill="#b6c92c" d="M283.5 553.5h23v22h-7v17a310.535 310.535 0 0 1-15.5 14c-.5-17.664-.667-35.33-.5-53Z" style="opacity:.451"/><path fill="#7cbcc6" d="M333.5 553.5h16v13a58.37 58.37 0 0 0-5 9h-11v-22Z" style="opacity:.62"/><path fill="#b6c92c" d="M353.5 553.5h26a70.278 70.278 0 0 1-10 21.5c-6.658.5-13.325.666-20 .5v-12c1.9-3.018 3.233-6.351 4-10Z" style="opacity:.451"/><path fill="#9dc372" d="M349.5 566.5v9h-5a58.37 58.37 0 0 1 5-9Z" style="opacity:.792"/><path fill="#99a18b" d="M391.5 575.5h16v24h-16v-24Z" style="opacity:1"/><path fill="#b6c92d" d="M324.5 599.5c8.007-.166 16.007 0 24 .5a10450.077 10450.077 0 0 1-171 173c55.332.5 110.666.667 166 .5-.453.958-1.119 1.792-2 2.5-63.667.667-127.333.667-191 0a8671.578 8671.578 0 0 0 174-176.5Z" style="opacity:.451"/><path fill="#7fbcc4" d="M511.5 599.5h16c.166 10.339 0 20.672-.5 31a1245.314 1245.314 0 0 0-29.5 30c-.667 0-1 .333-1 1-.667 0-1 .333-1 1-.667 0-1 .333-1 1-.667 0-1 .333-1 1-.667 0-1 .333-1 1-.667 0-1 .333-1 1-.667 0-1 .333-1 1-.667 0-1 .333-1 1-.667 0-1 .333-1 1-.667 0-1 .333-1 1-.667 0-1 .333-1 1-.667 0-1 .333-1 1-.667 0-1 .333-1 1-.667 0-1 .333-1 1-.667 0-1 .333-1 1-.667 0-1 .333-1 1-.667 0-1 .333-1 1-.667 0-1 .333-1 1-.667 0-1 .333-1 1-.667 0-1 .333-1 1-.667 0-1 .333-1 1-.667 0-1 .333-1 1-.667 0-1 .333-1 1-.667 0-1 .333-1 1-.667 0-1 .333-1 1-.667 0-1 .333-1 1-.667 0-1 .333-1 1-.667 0-1 .333-1 1-.667 0-1 .333-1 1-.667 0-1 .333-1 1-.667 0-1 .333-1 1-.667 0-1 .333-1 1-.667 0-1 .333-1 1-.667 0-1 .333-1 1-.667 0-1 .333-1 1-.667 0-1 .333-1 1-.667 0-1 .333-1 1-.667 0-1 .333-1 1-.667 0-1 .333-1 1-.667 0-1 .333-1 1-.667 0-1 .333-1 1-.667 0-1 .333-1 1-.667 0-1 .333-1 1-.667 0-1 .333-1 1-.667 0-1 .333-1 1-.667 0-1 .333-1 1-.667 0-1 .333-1 1-.667 0-1 .333-1 1-.667 0-1 .333-1 1-.667 0-1 .333-1 1-.667 0-1 .333-1 1-.667 0-1 .333-1 1-.667 0-1 .333-1 1-.667 0-1 .333-1 1-.667 0-1 .333-1 1-.667 0-1 .333-1 1-.667 0-1 .333-1 1-.667 0-1 .333-1 1-.667 0-1 .333-1 1l-55 54h-15a28836.825 28836.825 0 0 1 142.5-143c.5-10.328.666-20.661.5-31Z" style="opacity:.62"/><path fill="#c3c654" d="M497.5 660.5c1.333.667 1.333.667 0 0ZM496.5 661.5h1c-.185.67-.519.67-1 0ZM495.5 662.5h1c-.185.67-.519.67-1 0ZM494.5 663.5h1c-.185.67-.519.67-1 0Z" style="opacity:.004"/><path fill="#c3c654" d="M493.5 664.5h1c-.185.67-.519.67-1 0ZM492.5 665.5h1c-.185.67-.519.67-1 0ZM491.5 666.5h1c-.185.67-.519.67-1 0Z" style="opacity:.012"/><path fill="#c3c654" d="M490.5 667.5h1c-.185.67-.519.67-1 0Z" style="opacity:.016"/><path fill="#c2c652" d="M489.5 668.5h1c-.185.67-.519.67-1 0ZM488.5 669.5h1c-.185.67-.519.67-1 0ZM487.5 670.5h1c-.185.67-.519.67-1 0Z" style="opacity:.02"/><path fill="#c3c653" d="M486.5 671.5h1c-.185.67-.519.67-1 0Z" style="opacity:.027"/><path fill="#c2c652" d="M485.5 672.5h1c-.185.67-.519.67-1 0ZM484.5 673.5h1c-.185.67-.519.67-1 0Z" style="opacity:.035"/><path fill="#c2c652" d="M483.5 674.5h1c-.185.67-.519.67-1 0Z" style="opacity:.039"/><path fill="#c2c652" d="M482.5 675.5h1c-.185.67-.519.67-1 0Z" style="opacity:.043"/><path fill="#c2c652" d="M481.5 676.5h1c-.185.67-.519.67-1 0ZM480.5 677.5h1c-.185.67-.519.67-1 0Z" style="opacity:.051"/><path fill="#c2c651" d="M479.5 678.5h1c-.185.67-.519.67-1 0Z" style="opacity:.055"/><path fill="#c2c651" d="M478.5 679.5h1c-.185.67-.519.67-1 0Z" style="opacity:.063"/><path fill="#c2c651" d="M477.5 680.5h1c-.185.67-.519.67-1 0Z" style="opacity:.067"/><path fill="#c2c650" d="M476.5 681.5h1c-.185.67-.519.67-1 0Z" style="opacity:.071"/><path fill="#c2c650" d="M475.5 682.5h1c-.185.67-.519.67-1 0Z" style="opacity:.075"/><path fill="#c2c650" d="M474.5 683.5h1c-.185.67-.519.67-1 0Z" style="opacity:.078"/><path fill="#c1c64f" d="M473.5 684.5h1c-.185.67-.519.67-1 0Z" style="opacity:.086"/><path fill="#c1c64f" d="M472.5 685.5h1c-.185.67-.519.67-1 0Z" style="opacity:.09"/><path fill="#c1c74f" d="M471.5 686.5h1c-.185.67-.519.67-1 0Z" style="opacity:.094"/><path fill="#c1c74e" d="M470.5 687.5h1c-.185.67-.519.67-1 0Z" style="opacity:.098"/><path fill="#c1c74d" d="M469.5 688.5h1c-.185.67-.519.67-1 0ZM468.5 689.5h1c-.185.67-.519.67-1 0Z" style="opacity:.11"/><path fill="#c1c74d" d="M467.5 690.5h1c-.185.67-.519.67-1 0Z" style="opacity:.114"/><path fill="#c0c74c" d="M466.5 691.5h1c-.185.67-.519.67-1 0Z" style="opacity:.122"/><path fill="#c0c74b" d="M465.5 692.5h1c-.185.67-.519.67-1 0Z" style="opacity:.129"/><path fill="#c0c74b" d="M464.5 693.5h1c-.185.67-.519.67-1 0ZM463.5 694.5h1c-.185.67-.519.67-1 0Z" style="opacity:.133"/><path fill="#c0c74a" d="M462.5 695.5h1c-.185.67-.519.67-1 0Z" style="opacity:.141"/><path fill="#bfc74a" d="M461.5 696.5h1c-.185.67-.519.67-1 0Z" style="opacity:.149"/><path fill="#bfc749" d="M460.5 697.5h1c-.185.67-.519.67-1 0Z" style="opacity:.149"/><path fill="#bfc749" d="M459.5 698.5h1c-.185.67-.519.67-1 0Z" style="opacity:.157"/><path fill="#bfc748" d="M458.5 699.5h1c-.185.67-.519.67-1 0Z" style="opacity:.161"/><path fill="#bfc747" d="M457.5 700.5h1c-.185.67-.519.67-1 0Z" style="opacity:.165"/><path fill="#bec747" d="M456.5 701.5h1c-.185.67-.519.67-1 0Z" style="opacity:.169"/><path fill="#bec746" d="M455.5 702.5h1c-.185.67-.519.67-1 0Z" style="opacity:.173"/><path fill="#bec745" d="M454.5 703.5h1c-.185.67-.519.67-1 0Z" style="opacity:.176"/><path fill="#bec744" d="M453.5 704.5h1c-.185.67-.519.67-1 0Z" style="opacity:.18"/><path fill="#bec744" d="M452.5 705.5h1c-.185.67-.519.67-1 0Z" style="opacity:.184"/><path fill="#bdc743" d="M451.5 706.5h1c-.185.67-.519.67-1 0Z" style="opacity:.188"/><path fill="#bdc742" d="M450.5 707.5h1c-.185.67-.519.67-1 0Z" style="opacity:.192"/><path fill="#bdc842" d="M449.5 708.5h1c-.185.67-.519.67-1 0Z" style="opacity:.192"/><path fill="#bcc841" d="M448.5 709.5h1c-.185.67-.519.67-1 0Z" style="opacity:.196"/><path fill="#bcc840" d="M447.5 710.5h1c-.185.67-.519.67-1 0Z" style="opacity:.2"/><path fill="#bcc83f" d="M446.5 711.5h1c-.185.67-.519.67-1 0Z" style="opacity:.204"/><path fill="#bcc83e" d="M445.5 712.5h1c-.185.67-.519.67-1 0Z" style="opacity:.204"/><path fill="#bbc83e" d="M444.5 713.5h1c-.185.67-.519.67-1 0Z" style="opacity:.208"/><path fill="#bbc83c" d="M443.5 714.5h1c-.185.67-.519.67-1 0Z" style="opacity:.208"/><path fill="#bbc83b" d="M442.5 715.5h1c-.185.67-.519.67-1 0Z" style="opacity:.212"/><path fill="#bac83a" d="M441.5 716.5h1c-.185.67-.519.67-1 0ZM440.5 717.5h1c-.185.67-.519.67-1 0Z" style="opacity:.216"/><path fill="#bac839" d="M439.5 718.5h1c-.185.67-.519.67-1 0Z" style="opacity:.216"/><path fill="#bac838" d="M438.5 719.5h1a4150.02 4150.02 0 0 1-54 54.5c-.937.692-1.603.525-2-.5l55-54Z" style="opacity:.227"/><path fill="#b6c92c" d="M411.5 771.5h201c-3.442 1.248-7.108 2.081-11 2.5-64.333.667-128.667.667-193 0a10.515 10.515 0 0 1 3-2.5Z" style="opacity:.449"/></svg>