<?xml version="1.0" encoding="UTF-8"?>
<svg id="BlitzPlainColor_Image" data-name="BlitzPlainColor Image" xmlns="http://www.w3.org/2000/svg" viewBox="0 0 994.34 964.84">
  <defs>
    <style>
      .cls-1 {
        opacity: 1;
      }

      .cls-2 {
        fill: #c9762c;
        stroke-width: 0px;
      }
    </style>
  </defs>
  <g class="cls-1">
    <path class="cls-2" d="M534.4,563.07c-.8,0-1.45.65-1.45,1.45,0,55.14-.08,109.06.13,162.98.02,5.54-1.64,9.3-5.51,13.15-73.08,72.86-146.03,145.85-218.97,218.84-3.05,3.05-5.81,5.36-10.79,5.35-98.13-.19-196.26-.14-294.38-.14h-1.98c-1.26,0-1.92-1.5-1.06-2.43,1.44-1.56,2.59-2.81,3.79-4.01,11.49-11.52,23.04-22.97,34.49-34.52,66.81-67.32,133.96-134.32,200.2-202.2,20.49-21,42.02-41.24,59.94-64.59,14.78-19.28,24.17-41.44,29.25-65.21,4.43-20.73,4.99-41.81,4.97-62.98-.15-172.26-.08-344.52-.08-516.77V3.48c0-.57.33-1.08.85-1.32,3.07-1.44,6.04-.68,8.86-.68,119.46-.06,238.92.3,358.38-.28,31.46-.15,61.47,5.12,91.02,15.27,35.69,12.26,68.24,30.39,97.83,53.41,35.07,27.27,63.11,60.79,82.21,101.18,10.42,22.03,17.05,45.24,20.23,69.52,2.81,21.5,2.19,43.08,1.11,64.47-1.72,33.77-8.74,66.79-22.79,97.83-14.24,31.44-34.91,57.39-66.16,74.66-.94.52-1.01,1.83-.14,2.45,28.82,20.44,49.44,47.08,64.45,78.16,10.37,21.47,16.42,44.25,20.49,67.83,4.43,25.66,3.88,51.43,2.43,76.95-1.65,28.9-8.69,57.12-20.19,84.05-11.23,26.29-26.57,49.63-45.77,70.84-22.11,24.43-48.07,43.36-76.7,59.25-30.54,16.95-62.98,28.7-96.72,37.1-18.09,4.51-36.29,7.61-55.21,7.54-105.33-.39-210.66-.19-315.98-.19h-7.06c-1.06,0-1.77-1.11-1.31-2.07.68-1.44,2.12-2.19,3.1-3.16,26.16-26.26,51.72-53.16,78.75-78.49,32.86-30.78,63.82-63.43,96.04-94.83,7.06-6.89,15.03-10.48,25.21-10.39,36.8.33,73.62-.66,110.38.47,17.32.53,32.18-4.15,45.81-13.51,24.16-16.58,40.73-38.8,47.34-67.75,11.58-50.73-3.24-84.86-46.02-114.12-14.75-10.09-30.56-15.49-49.41-14.99-47.16,1.25-94.38.41-141.58.41h-7.97ZM534.75,384.01c0,.8.65,1.45,1.45,1.45h7.97c40.26,0,80.52-.05,120.77.03,14.52.03,28.96-1.15,42.94-4.95,29.5-8.01,53.69-23.54,66.48-52.45,10.46-23.63,11.51-48.68,5.79-73.61-6.48-28.24-23.41-48.04-50.72-59.03-14.92-6.01-30.52-7.81-46.09-8.18-47.34-1.14-94.7-1.28-142.05-1.84-1.64-.02-3.27-.21-4.94-.38-.85-.09-1.6.58-1.6,1.44v197.53Z"/>
    <path class="cls-2" d="M216.77,0h32.22c.54,0,1.04.3,1.29.78,1.47,2.79.62,5.77.62,8.57.06,213.56.03,427.11.17,640.67,0,5.54-2.3,10.83-6.34,14.62-7.68,7.19-14.94,14.83-22.4,22.26-1.66,1.65-3.16,3.61-5.06,4.4-.93.39-1.96-.35-1.96-1.36V1.45c0-.8.65-1.45,1.45-1.45Z"/>
  </g>
</svg>